<?xml version="1.0" encoding="utf-8"?>
<!-- Generator: Adobe Illustrator 25.3.1, SVG Export Plug-In . SVG Version: 6.00 Build 0)  -->
<svg version="1.1" id="Calque_1" xmlns:v="https://vecta.io/nano"
	 xmlns="http://www.w3.org/2000/svg" xmlns:xlink="http://www.w3.org/1999/xlink" x="0px" y="0px" viewBox="0 0 120 120"
	 style="enable-background:new 0 0 120 120;" xml:space="preserve">
<style type="text/css">
	.st0{clip-path:url(#SVGID_2_);}
	.st1{fill:#0D6EFD;}
</style>
<g>
	<defs>
		<rect id="SVGID_1_" y="0" width="120" height="120"/>
	</defs>
	<clipPath id="SVGID_2_">
		<use xlink:href="#SVGID_1_"  style="overflow:visible;"/>
	</clipPath>
	<g class="st0">
		<path class="st1" d="M118.2,87c-10.7-2.8-20.6-8.5-31.8-9.7c-2.2-0.2-2.6,2.6-1.6,3.8c1.4,1.6,3.2,4,5.2,6
			c-5.6,0.4-10.7,2.4-16.3,3.6c-5.2,1.2-10.3,0.4-15.1-1.4c1.2-1.2,2.2-2.6,3.4-4c7.9-11.3,12.9-48.4-7.7-51
			c-11.7-1.6-22.4,13.3-23,23.8c-0.8,13.9,7.5,25.6,18.9,32.6c-4.8,3.2-10.5,4.8-16.7,5.2c-12.9,0.6-22-7.9-26.4-19.5
			c-7.9-21-1.2-49.8,21.4-58c1-0.4,1-2-0.2-2C-0.1,16.8-4,59,3.1,78.7c8.1,22.4,34.9,27.2,51.8,14.1c1.4,0.6,3,1.4,4.6,1.8
			c10.9,3.8,20.6-1.6,31.2-2.8c-1.4,2.6-2.8,5.4-4.8,7.7c-1.4,1.8-0.2,4.8,2.4,4C99,100.3,109.9,98,119,91.4
			C120.4,90.2,120.4,87.4,118.2,87L118.2,87z M54.3,87c-2.4-1.4-4.8-3-6.8-4.8c-13.7-11.5-15.7-33,1.4-42.5
			c7.9-4.4,12.5,5.4,14.1,11.5c2.4,8.9,1,19.3-2.8,27.6C58.5,82.1,56.5,84.7,54.3,87L54.3,87z M97.2,89.6c0.2,0,0.4-0.4,0.4-0.6
			c-0.6-2.2-2.4-4-4.4-5.8c6.4,1.8,12.3,4.6,18.7,6.6c-6,3.2-12.5,5.2-19.3,7.1c1.2-2.2,2.2-4.4,4-6.2C97,90.4,97.2,90,97.2,89.6
			L97.2,89.6z"/>
	</g>
</g>
</svg>
